<?xml version="1.0" encoding="UTF-8"?><svg id="Layer_8" xmlns="http://www.w3.org/2000/svg" viewBox="0 0 1122.01 1000.7"><defs><style>.cls-1{fill:#fff;}.cls-2{fill:#5f3518;}.cls-3{fill:#932933;}.cls-4{fill:#945e23;}.cls-5{fill:#dcd9de;}.cls-6{fill:#fecb84;}.cls-7{fill:#ed1a39;}.cls-8{fill:#212121;}.cls-9{fill:#9b9fa1;}.cls-10{fill:#7e8387;}.cls-11{fill:#a46b25;}.cls-12{fill:#f6a71c;}</style></defs><path id="base" class="cls-8" d="M287,640.57s86.89-35.3,146.62,45.07c36.93,61.91-11.4,109.15-11.4,109.15,0,0,30.95,8.15,57.56-16.83-18.46,87.97-51.59,115.67-84.17,141.73,143.36,60.82,221.56,2.72,245.45-16.83,0,0,4.34,18.46-4.34,34.75,152.05-19.55,234.05-132.5,238.94-176.49,12.05,14.74,12.49,38.56,12.49,38.56,0,0,102.09-53.76,47.24-222.1,15.71,5.05,54.26,28.53,54.8,35.59-40.06-284.03-196.01-413.1-244.88-446.23-48.87-33.13-508.27,265.11-508.27,265.11,0,0-65.16,65.16-36.38,175.94,28.78,110.78,105.35,125.98,105.35,125.98,0,0-21.72-42.9-19.01-93.4Z"/><path id="beak" class="cls-12" d="M256.59,435.84s-55.93,41.27-46.16,137.93c9.77,96.66,70.59,132.5,70.59,132.5,0,0-39.64-100.46,47.79-143.36,87.43-42.9,144.99-42.36,247.63-60.28,6.52,8.15-150.42,32.58-206.35,60.82-39.64,19.55-66.79,36.38-73.31,57.56,23.89-4.34,67.34-8.69,82-20.64,20.64-14.12,7.06-28.78,23.89-35.84,16.83-7.06,163.45-32.58,175.4-43.99,11.95-11.4,28.78-32.04-10.32-32.58-35.84,3.26-55.39,20.09-99.38,19.55-43.99-.54-60.28-18.46-60.28-18.46,0,0-10.32-50.5-26.61-64.62,0,0-7.6,7.06-16.29,9.23,13.03,20.09,15.75,28.78,16.29,42.9-20.09-21.18-36.93-26.07-53.22-15.21.54-13.58,7.6-19.01,7.6-19.01,0,0-12.49,2.17-22.81,1.09-10.32-1.09-56.48-7.6-56.48-7.6Z"/><path id="beak_shadow" class="cls-11" d="M510.44,522.3c-47.93,11.17-113.58,24.11-144.43,39.68-39.64,19.55-62.72,37.86-69.24,59.04,3.56-.65,11.52-1.92,15.79-2.59,12.52-25.42,46.39-42.21,63.22-49.27,10.77-4.52,79.53-28.81,135.22-41.27,2.99-.69,8.48-2.2,8.48-2.2,0,0,9.28,8.88,10.15,10.1l5.69-1.36c-.2-2-8.24-10.84-7.4-11.04,8.26-1.99,27.41-6.74,33.99-9.62,3.85-1.69,5.63-5.86,5.63-5.86l-8.99,2.69-38.39,9.44s-6.5,1.38-9.71,2.26Z"/><path id="feathers_shadow" class="cls-10" d="M445.57,646s33.13,46.16,24.98,103.72c19.55-18.46,26.07-32.58,26.07-32.58,0,0,50.5,94.49-46.7,193.86,0,0,130.87,45.62,225.9-89.6,0,0,9.23,46.4,0,75.87,0,.15,184.09-51.44,183.55-207.29,0,0,30.95,16.29,40.18,52.67,0,0,52.13-72.77-15.21-223.73,0,0,51.25,14.15,71.51,35.85.17-.01-50.87-227-231.71-372.54,0,0-70.05,54.85-132.5,77.11l-179.2,143.36s48.33,19.55,110.78-26.61c62.45-46.16,97.2-70.05,182.46-86.34,0,0-55.93,17.92-81.46,48.87,0,0,66.79-26.61,101.55-18.46,0,0-79.83,24.44-108.61,64.08,0,0,3.8,34.75-43.99,62.99-47.79,28.24-76.03.54-101.55,5.97,0,0,9.77,8.15,10.86,16.83,0,0-18.46-5.97-34.75,1.09,0,0,8.69,5.97,10.32,11.4,0,0-10.86,0-15.21,3.26,0,0,27.69,16.29,90.14-2.72,62.45-19.01,69.51,7.06,70.59,9.23s7.06,20.64-16.29,38.01c-23.35,17.38-86.89,28.24-86.89,28.24,0,0,26.61-1.09,32.58,8.15,0,0-25.52-3.8-49.42,5.43,31.22-6.79,98.33,8.39,120.59,32.83-39.1-11.95-74.97-2.42-74.97-2.42,0,0,19.55,15.75,27.15,29.32,0,0-28.24-14.12-41.81-13.03,0,0,45.62,83.08,22.26,159.65,0,0,13.03-112.95-65.16-146.08,0,0,11.4,24.44,9.23,31.5,0,0-20.09-19.55-35.3-17.92Z"/><path class="cls-6" d="M568.44,375.39c5.98,13.35.91,29.98-12.58,38.93-14.91,9.89-34.45,6.68-43.65-7.18-.05-.07-.09-.15-.14-.22-4.89,2.59-9.75,5.13-14.58,7.61.34.56.68,1.13,1.05,1.68,13.86,20.88,43.3,25.72,65.75,10.82,20.81-13.81,28.3-39.72,18.27-60.06-4.66,2.81-9.37,5.62-14.12,8.43Z"/><ellipse class="cls-1" cx="569.19" cy="392.06" rx="9.82" ry="9.84" transform="translate(-121.86 380.17) rotate(-33.57)"/><g id="hat"><path class="cls-8" d="M293.24,337.83s-187.89,110.24-179.2,133.59c8.69,23.35,46.16,8.15,60.82-3.8,14.66-11.95,32.15-30.2,32.15-30.2l11.84-2.38s16.29-2.72,29.87-.54c13.58,2.17,329.5-180.27,343.41-194.13,13.91-13.86,131.75-73.05,140.43-69.25,8.69,3.8,12.49,11.4,12.49,11.4,0,0,7.89-54.29-64.08-100.46-57.56-36.93-110.17-40.29-194.95-4.89-98.83,41.27-127.61,52.13-161.83,82.54-34.21,30.41-80.91,92.32-30.95,178.12Z"/><path class="cls-7" d="M485.48,94.54s-133.07,45.16-166.71,87.97c-23.89,30.41-51.05,66.79-14.66,146.62,0,0,2.72-8.69,56.48-33.13,53.76-24.44,211.24-49.42,211.24-49.42,0,0-4.89-77.11-86.34-152.05Z"/><path class="cls-7" d="M590.28,242.79s64.08-23.35,138.47-76.03c0,0-2.05-50.22-78.2-86.89-58.65-28.24-121.64-2.72-148.25,8.15,0,0,69.51,56.48,87.97,154.77Z"/><path class="cls-7" d="M560.96,264.37l-174.86,138.62s-32.04,28.78-76.03,23.35c-43.99-5.43-86.89-12.49-112.95-4.89,0,0,103.18-70.05,146.08-96.66,42.9-26.61,76.57-33.95,217.76-60.42Z"/><path class="cls-7" d="M722.46,171.18c2.09-1.45,4.19-2.92,6.3-4.41,0,0-2.05-50.22-78.2-86.89-38.5-18.54-78.88-13.91-109.6-5.46,117.75-12.46,162.82,54.88,181.5,96.76Z"/><path class="cls-3" d="M213.61,418.6c-6.03.5-11.56,1.41-16.49,2.85,0,0,103.18-70.05,146.08-96.66,11.83-7.34,22.96-13.21,35.84-18.43,0-.04-138.47,95.54-165.43,112.24Z"/><path class="cls-3" d="M334.73,167.11c-6.48,5.11-11.94,10.28-15.97,15.4-23.89,30.41-51.05,66.79-14.66,146.62,0,0,.88-2.83,11.64-9.8-6.75-15.18-45.85-81.43,18.99-152.22Z"/><path class="cls-3" d="M485.48,94.54s-3.4,1.15-9.25,3.27c45.63,41.81,81.47,110.23,88.14,150,4.78-.79,7.46-1.22,7.46-1.22,0,0-4.89-77.11-86.34-152.05Z"/><path class="cls-3" d="M722.46,171.18c2.09-1.45,4.19-2.92,6.3-4.41,0,0-2.05-50.22-78.2-86.89-38.5-18.54-78.88-13.91-109.6-5.46,117.75-12.46,162.82,54.88,181.5,96.76Z"/></g><path class="cls-11" d="M256.59,435.84s-55.93,41.27-46.16,137.93c7.75,76.6,47.55,115,63.73,127.65,4.24,3.31-102.56-104.02-28.71-240.33,44.85,2.11,72.05,39.39,125.49,31.41,7.16-1.07,14.05-3.54,20.31-7.19,7.79-4.56,13.69-9.08,12.81-12.88-4.67-20.19-11.05-37.02-22.58-48,0,0-7.6,7.06-16.29,9.23,13.03,20.09,15.75,28.78,16.29,42.9-20.09-21.18-36.93-26.07-53.22-15.21.54-13.58,7.6-19.01,7.6-19.01,0,0-12.49,2.17-22.81,1.09-10.32-1.09-56.48-7.6-56.48-7.6Z"/><path id="feathers" class="cls-1" d="M505.91,716.77s31.17,76.09-30.08,163.26c0,0,101.88,26.95,233.18-109.82,0,0-18.34,33.79-33.2,51.2,0,0,3.5,17.6,4.04,38.01,0,0,172.85-36.03,166.09-238.39,0,.15,14,28.59,13.42,68.97,0,0,15.64,8.23,28,26.06,0,0,38.22-69.82-42.39-260.01,0,0,19.79,15.45,39.37,62.88,0,0,28.83,7.96,51.79,21.09-19.23-69.02-48.68-190.17-214-348.74,0,0-66.21,60.02-130.89,78.04,0,0-93.73,114.91-115.14,131.58,14.21-4.55,30.14-12.24,47.12-24.79,62.45-46.16,97.2-70.05,182.46-86.34,0,0-51.23,28.77-65.52,43.15,21.95-7.31,61.49-18.4,85.61-12.74,0,0-42.68,15.28-74.95,42.76-12.41,10.57-22,24.1-27.88,39.31-6.09,15.77-19.3,41.38-43.71,53.06-39.18,18.74-48.9,7.7-82.93,13.49-17.38,3.38-33.24,17.57-22.28,23.46,14.34.42,33.84-1.51,58.99-9.16,62.45-19.01,69.51,7.06,70.59,9.23s3.97,34.18-19.38,51.56c-2.41,4.67-10.14,10.62-10.14,10.62,0,0,8.87,3.21-.18,9.97-9.05,6.76,26.46,6.46,26.46,6.46,24.93,5.65,10.23,39.89,26.88,47.13-23.87-7.89-43.48-6.84-54.32-5.62-19.87,2.24-11.49,20.42-10.12,22.87,0,0-19.59-4.36-26.51-.98,0,0-.02.01-.07.03-6.65,3.21-5.16,11.16-2.71,18.13,10.98,31.25,17.41,79.7,3.29,126.01,0,0,1.77-6.47.81-16.66-2.19-23.34-12.81-61.64-31.16-75.4-19.58-13.16-.54,30.33-.54,30.33Z"/><path class="cls-6" d="M266.43,522.69c-12.4,19.34-19.2,40.81-21.36,63.51-.79,7.52-1.07,15.16-1.57,23.14-12.44-28.45-4.32-69.57,22.93-86.64h0Z"/><polygon class="cls-8" points="641.54 635.3 518.38 518.34 556.84 508.98 664.83 610.74 641.54 635.3"/><rect class="cls-5" x="555.29" y="575.67" width="110.57" height="13.9" transform="translate(568.37 -260.27) rotate(43.48)"/><polygon class="cls-4" points="565.86 549.79 530.67 516.29 548.49 514.37 575.42 539.71 565.86 549.79"/><polygon class="cls-9" points="571.24 543.76 575.24 539.54 655.48 615.62 652.08 619.2 571.24 543.76"/><polygon class="cls-2" points="542.2 515.05 548.49 514.37 575.42 539.71 571.42 543.93 542.2 515.05"/><path class="cls-8" d="M640.75,634.59c6.96,6.96,17.98,7.21,24.62.57,6.64-6.64,6.38-17.66-.57-24.62-6.96-6.96-31,17.09-24.04,24.04Z"/><path class="cls-7" d="M650.63,629.72c2.78,2.78,7.15,2.92,9.76.31,2.61-2.61,2.47-6.98-.31-9.76s-12.23,6.66-9.44,9.44Z"/></svg>